<svg xmlns="http://www.w3.org/2000/svg" viewBox="0 0 256 326">
  <path fill="#092E20" d="M114.784 0h53.278v244.191c-27.29 5.162-47.38 7.193-69.117 7.193-64.804 0-98.724-29.28-98.724-85.28 0-54.027 36.024-89.314 92.143-89.314 8.64 0 15.222.725 22.42 2.175V0zm0 127.63c-5.778-1.45-10.138-2.175-17.15-2.175-25.634 0-40.857 15.763-40.857 43.434 0 27.296 14.88 41.13 39.888 41.13 5.778 0 10.141-.361 18.119-1.45V127.63zM253.583 0h-53.279v197.941h-73.599v-52.798h73.599V0h53.279v145.143z"/>
  <path fill="#092E20" d="M196.098 0h53.278v53.275h-53.278V0z"/>
</svg>
